<svg width="2590" height="683" xmlns="http://www.w3.org/2000/svg" xmlns:xlink="http://www.w3.org/1999/xlink" xml:space="preserve" overflow="hidden"><g transform="translate(-123 -32)"><g><path d="M146.5 325C107.642 152.703 231.605 69.6604 431 54.5002 594.011 55.6841 703.339 175.977 715.5 325 683.873 503.907 587.384 599.413 431 595.5 254.04 585.129 184.416 491.706 146.5 325Z" fill="#A6CAEC" fill-rule="evenodd" fill-opacity="1"/><path d="M146.5 325C162.896 177.465 279.874 42.7021 431 54.5002 568.811 51.6736 687.894 200.444 715.5 325 715.093 470.68 573.245 615.261 431 595.5 299.875 609.409 181.47 482.428 146.5 325Z" stroke="#C04F15" stroke-width="41.25" stroke-linecap="butt" stroke-linejoin="miter" stroke-miterlimit="8" stroke-opacity="1" fill="none" fill-rule="evenodd"/><text fill="#000000" fill-opacity="1" font-family="Bradley Hand,Bradley Hand_MSFontService,sans-serif" font-style="normal" font-variant="normal" font-weight="700" font-stretch="normal" font-size="248" text-anchor="start" direction="ltr" writing-mode="lr-tb" unicode-bidi="normal" text-decoration="none" transform="matrix(1 0 0 1 745.851 469)">nt</text><path d="M722.5 492C779.342 478.26 824.356 503.777 874.298 492 924.241 480.224 958.778 492.956 1032.29 492 1030.92 478.448 1033.23 473.033 1032.29 457.5 1066.6 486.747 1070.2 509.077 1104.5 526.5 1080.91 561.142 1053.34 560.523 1032.29 595.5 1028.18 580.479 1033.04 574.905 1032.29 561 962.082 567.838 916.263 550.642 883.592 561 850.921 571.358 773.198 553.85 722.5 561 716.391 537.764 724.995 513.38 722.5 492Z" stroke="#000000" stroke-width="20.625" stroke-linecap="butt" stroke-linejoin="miter" stroke-miterlimit="8" stroke-opacity="1" fill="none" fill-rule="evenodd"/><path d="M261 323C239.504 225.82 328.092 173.077 430 170 528.479 171.036 587.632 238.846 599.001 323 590.249 415.673 521.971 483.215 430 476 314.873 464.598 276.015 414.361 261 323Z" stroke="#3A3A3A" stroke-width="32.0833" stroke-linecap="butt" stroke-linejoin="miter" stroke-miterlimit="8" stroke-opacity="1" fill="none" fill-rule="evenodd"/><path d="M415.5 335C415.5 324.783 424.007 316.5 434.5 316.5 444.993 316.5 453.5 324.783 453.5 335 453.5 345.217 444.993 353.5 434.5 353.5 424.007 353.5 415.5 345.217 415.5 335Z" stroke="#C04F15" stroke-width="6.875" stroke-linecap="butt" stroke-linejoin="miter" stroke-miterlimit="8" stroke-opacity="1" fill="#C04F15" fill-rule="evenodd" fill-opacity="1"/><g><g><g><path d="M182.592 51.6775 168.841 26.9268C170.855 23.207 170.362 18.696 167.333 15.667 164.405 12.7386 159.913 12.1678 156.112 14.1817L131.323 0.40862C130.055-0.298358 128.479-0.0745894 127.457 0.950204L103.919 24.4848C103.096 25.3085 102.774 26.5084 103.083 27.6305L111.414 58.1732 92.4746 77.1092C89.2154 76.8465 85.8492 77.8519 83.4785 80.2258L75.3158 88.3884 94.6118 107.684 102.774 99.5217C104.912 97.3846 106.089 94.534 106.089 91.4952 106.089 91.132 106.017 90.7818 105.985 90.4251L124.824 71.5831 155.373 79.9144C155.655 79.989 155.94 80.0279 156.226 80.0279 157.076 80.0279 157.903 79.6939 158.519 79.0777L182.053 55.5432C183.072 54.5249 183.295 52.9455 182.592 51.6775ZM102.774 83.472 99.5314 80.229C99.3628 80.0604 99.1585 79.9404 98.9801 79.7847L117.319 61.4422C117.323 61.439 117.329 61.4357 117.332 61.4325L158.399 20.3629C159.764 19.1662 161.561 19.0722 162.748 20.2559 164.126 21.6309 163.678 23.4405 162.757 24.4848L121.571 65.6711 121.571 65.6743 103.225 84.0201C103.066 83.8385 102.943 83.6407 102.774 83.472Z" fill="#4EA72E" fill-rule="nonzero" fill-opacity="1" transform="matrix(1.04371 0 0 1 434 152)"/><path d="M71.0772 131.222 51.7813 111.926 58.9645 104.743 78.2605 124.039 71.0772 131.222Z" fill="#4EA72E" fill-rule="nonzero" fill-opacity="1" transform="matrix(1.04371 0 0 1 434 152)"/><path d="M30.2282 133.479C28.091 135.617 26.9138 138.467 26.9138 141.509 26.9138 144.223 27.8997 146.76 29.625 148.796L0.953447 177.464C-0.314573 178.732-0.314573 180.782 0.953447 182.05 1.58584 182.682 2.41281 183 3.24302 183 4.07323 183 4.90344 182.682 5.53583 182.05L34.2073 153.382C36.244 155.107 38.78 156.09 41.4944 156.09 44.5331 156.09 47.3805 154.912 49.5209 152.775L55.3713 146.925 36.0753 127.629 30.2282 133.479Z" fill="#4EA72E" fill-rule="nonzero" fill-opacity="1" transform="matrix(1.04371 0 0 1 434 152)"/><path d="M82.8461 119.457 63.5502 100.161 70.7302 92.9806 90.0262 112.277 82.8461 119.457Z" fill="#4EA72E" fill-rule="nonzero" fill-opacity="1" transform="matrix(1.04371 0 0 1 434 152)"/><path d="M59.9569 142.343 40.661 123.047 47.1956 116.512 66.4916 135.808 59.9569 142.343Z" fill="#4EA72E" fill-rule="nonzero" fill-opacity="1" transform="matrix(1.04371 0 0 1 434 152)"/></g></g></g><text fill="#000000" fill-opacity="1" font-family="Bradley Hand,Bradley Hand_MSFontService,sans-serif" font-style="normal" font-variant="normal" font-weight="700" font-stretch="normal" font-size="202" text-anchor="start" direction="ltr" writing-mode="lr-tb" unicode-bidi="normal" text-decoration="none" transform="matrix(1 0 0 1 1603.25 280)">OntoURL </text><path d="M1060 323C1038.5 225.82 1127.09 173.077 1229 170 1327.48 171.036 1386.63 238.846 1398 323 1389.25 415.673 1320.97 483.215 1229 476 1113.87 464.598 1075.02 414.361 1060 323Z" fill="#A6CAEC" fill-rule="evenodd" fill-opacity="1"/><path d="M1060 323C1078.5 240.599 1137.22 166.931 1229 170 1299.11 166.599 1391.55 244.311 1398 323 1396.02 389.453 1310.64 491.548 1229 476 1154.21 485.932 1072.3 410.328 1060 323Z" stroke="#000000" stroke-width="32.0833" stroke-linecap="butt" stroke-linejoin="miter" stroke-miterlimit="8" stroke-opacity="1" fill="none" fill-rule="evenodd"/><text fill="#000000" fill-opacity="1" font-family="Aptos,Aptos_MSFontService,sans-serif" font-style="normal" font-variant="normal" font-weight="400" font-stretch="normal" font-size="83" text-anchor="start" direction="ltr" writing-mode="lr-tb" unicode-bidi="normal" text-decoration="none" transform="matrix(1 0 0 1 1583.97 412)">A benchmark for </text><text fill="#1F2328" fill-opacity="1" font-family="Aptos,Aptos_MSFontService,sans-serif" font-style="italic" font-variant="normal" font-weight="400" font-stretch="normal" font-size="83" text-anchor="start" direction="ltr" writing-mode="lr-tb" unicode-bidi="normal" text-decoration="none" transform="matrix(1 0 0 1 2185.05 412)">Ontology </text><text fill="#1F2328" fill-opacity="1" font-family="Aptos,Aptos_MSFontService,sans-serif" font-style="italic" font-variant="normal" font-weight="700" font-stretch="normal" font-size="83" text-anchor="start" direction="ltr" writing-mode="lr-tb" unicode-bidi="normal" text-decoration="none" transform="matrix(1 0 0 1 1550.49 511)">Understanding, Reasoning </text><text fill="#1F2328" fill-opacity="1" font-family="Aptos,Aptos_MSFontService,sans-serif" font-style="italic" font-variant="normal" font-weight="700" font-stretch="normal" font-size="83" text-anchor="start" direction="ltr" writing-mode="lr-tb" unicode-bidi="normal" text-decoration="none" transform="matrix(1 0 0 1 1803.35 610)">and Learning</text></g></g></svg>